<svg xmlns="http://www.w3.org/2000/svg" viewBox="0 0 25.184 18.15"><defs><style>.a{fill:#ccc;}.b{fill:#7a7a7a;}</style></defs><g transform="translate(0 3.358)"><path class="a" d="M41.181,12.89a.681.681,0,1,1,0-1.361c.59,0,3.766-1.271,4.583-2.768H42.088a.681.681,0,0,1,0-1.361h4.538a.7.7,0,0,1,.681.681C47.261,10.985,42.224,12.89,41.181,12.89Z" transform="translate(-22.123 -7.4)"/><path class="a" d="M6.126,13.445C5.037,13.445,0,11.539,0,8.681A.7.7,0,0,1,.681,8H5.218a.681.681,0,0,1,0,1.361H1.5c.817,1.5,4.038,2.768,4.583,2.768a.7.7,0,0,1,.681.681A.62.62,0,0,1,6.126,13.445Z" transform="translate(0 -7.728)"/></g><path class="a" d="M26.881,31.9a.7.7,0,0,1-.681-.681V26.681a.681.681,0,1,1,1.361,0v4.538A.7.7,0,0,1,26.881,31.9Z" transform="translate(-14.311 -14.202)"/><path class="a" d="M25.956,38.361H16.881a.681.681,0,1,1,0-1.361h9.075a.681.681,0,1,1,0,1.361Z" transform="translate(-8.849 -20.211)"/><path class="a" d="M25.721,0c0,7.26-4.356,13.159-9.71,13.159S6.3,7.26,6.3,0Z" transform="translate(-3.441)"/><g transform="translate(7.617 1.293)"><path class="b" d="M19.7,6.14a.97.97,0,0,0,.771-.545l1-2.541c.091-.272.318-.272.408,0l1,2.541a.907.907,0,0,0,.771.545l2.723.182c.318,0,.363.182.136.408L24.416,8.5a.935.935,0,0,0-.272.908l.681,2.632c.091.318-.091.408-.318.227l-2.314-1.452a.9.9,0,0,0-.953,0l-2.314,1.452c-.272.182-.408.045-.318-.227l.681-2.632a.968.968,0,0,0-.272-.908L16.929,6.73c-.227-.182-.182-.363.136-.408Z" transform="translate(-16.788 -2.85)"/></g></svg>